# xmcd
#
# Track frame offsets:
#	150
#	18425
#	41280
#	65210
#	87412
#	111722
#	133245
#	153597
#	176505
#	190122
#	212230
#
# Disc length: 3115 seconds
#
# Revision: 1
# Processed by: cddbd v1.5PL3 Copyright (c) Steve Scherf et al.
# Submitted via: CDex 1.50Beta5
#
DISCID=a30c290b
DTITLE=我那覇美奈 - TRAVELING SUNS
DYEAR=2000
DGENRE=New Age
TTITLE0=Primrose-Yellow
TTITLE1=All I wish
TTITLE2=L.N.O.
TTITLE3=「サヨナラ」の日
TTITLE4=トラベリング・サンズ
TTITLE5=地球の砂場
TTITLE6=スタイル 2
TTITLE7=羽があるから
TTITLE8=さよならのあとに咲く花
TTITLE9=あたらしいくつ
TTITLE10=太陽
EXTD=
EXTT0=
EXTT1=
EXTT2=
EXTT3=
EXTT4=
EXTT5=
EXTT6=
EXTT7=
EXTT8=
EXTT9=
EXTT10=
PLAYORDER=
